<svg xmlns="http://www.w3.org/2000/svg" viewBox="0 0 177.68 72.45"><title>Asset 1</title><g id="Layer_2" data-name="Layer 2"><g id="Layer_2-2" data-name="Layer 2"><path d="M83.29,46.11c-2.75,0-4.55-.88-5.37-2.62s-.47-4,1-6.86a18.78,18.78,0,0,1,3.06-4.5,16.65,16.65,0,0,1,2.85-2.42,13.48,13.48,0,0,1,3.1-1.6,12.52,12.52,0,0,1,4.18-.7c2.73,0,4.53.89,5.35,2.64s.46,4.05-1,7a17.27,17.27,0,0,1-5.65,6.67A13.1,13.1,0,0,1,83.29,46.11Zm7.35-14.7a6.53,6.53,0,0,0-3.86,1.36A11.35,11.35,0,0,0,83.43,37c-.89,1.79-1.17,3.13-.84,4,.2.5.64,1.17,2.16,1.17a6.56,6.56,0,0,0,3.82-1.39A11.44,11.44,0,0,0,92,36.47c1.12-2.26,1.1-3.4.88-3.95C92.73,32.24,92.41,31.41,90.64,31.41Z" style="fill:#fff"/><polygon points="104.63 45.82 103.47 35.97 98.54 45.82 94.16 45.82 103.23 27.7 107.38 27.7 108.52 37.8 113.57 27.7 117.95 27.7 108.89 45.82 104.63 45.82" style="fill:#fff"/><path d="M111.94,45.82,121,27.7h6.63a10.82,10.82,0,0,1,3.26.35A3.4,3.4,0,0,1,133,29.91a5.33,5.33,0,0,1,.29,3.06,15.16,15.16,0,0,1-1.51,4.19,19.12,19.12,0,0,1-2.41,3.74A16,16,0,0,1,125.9,44a11.48,11.48,0,0,1-3.25,1.43,12.72,12.72,0,0,1-3.37.38Zm8.31-3.93a10.17,10.17,0,0,0,2-.15,4.87,4.87,0,0,0,1.58-.64,6.93,6.93,0,0,0,1.6-1.53,17.08,17.08,0,0,0,1.85-3,11.92,11.92,0,0,0,1.13-2.9,2.08,2.08,0,0,0-.1-1.3,1.2,1.2,0,0,0-.86-.55,12.67,12.67,0,0,0-2.62-.15h-1.22l-5.13,10.25Z" style="fill:#fff"/><path d="M141.68,45.82l.45-3.87h-6l-3.34,3.87h-5.08L143.84,27.7h4.46l-1.8,18.12Zm.91-7.8.53-4.14L139.54,38Z" style="fill:#fff"/><path d="M154.47,46.13c-2.34,0-3.91-.59-4.67-1.74s-.73-2.77.06-4.84l.11-.3,4.64-.43-.24.76a2.53,2.53,0,0,0-.08,2c.25.37.81.56,1.67.56a5,5,0,0,0,2.59-.63A3.62,3.62,0,0,0,160,40.1a.91.91,0,0,0,.13-.63s-.11-.22-.58-.42c-.31-.13-1.09-.37-2.32-.72-1.77-.5-2.87-1.13-3.35-1.92a3.89,3.89,0,0,1,.12-3.95,8.46,8.46,0,0,1,2.08-2.6A9.81,9.81,0,0,1,159.27,28a11.65,11.65,0,0,1,3.83-.62c2.36,0,3.85.54,4.58,1.64s.67,2.54-.14,4.28l-.14.29-4.6.19.24-.72c.22-.68.25-1.18.08-1.41s-.4-.37-1.48-.37a5,5,0,0,0-2.41.56,1.87,1.87,0,0,0-.86.83c-.16.33-.08.45,0,.5s.37.41,2.3.93a10.94,10.94,0,0,1,3.28,1.31,2.9,2.9,0,0,1,1.23,2.1,5.47,5.47,0,0,1-.73,3,9.85,9.85,0,0,1-2.31,2.91,10.28,10.28,0,0,1-3.44,2A12.61,12.61,0,0,1,154.47,46.13Z" style="fill:#fff"/><polygon points="163.99 45.82 173.06 27.7 177.68 27.7 168.62 45.82 163.99 45.82" style="fill:#fff"/><polygon points="23.13 72.14 32.54 53.33 46.88 53.33 44.86 57.39 35.27 57.39 33.83 60.27 42.75 60.27 40.72 64.32 31.81 64.32 29.91 68.1 39.84 68.1 37.81 72.14 23.13 72.14" style="fill:#fff"/><polygon points="55.22 72.14 60 62.58 52.81 72.14 48.42 72.14 50.91 62.14 45.91 72.14 41.4 72.14 50.81 53.33 57.16 53.33 54.74 63.7 62.65 53.33 69.14 53.33 59.73 72.14 55.22 72.14" style="fill:#fff"/><polygon points="63.77 72.14 73.18 53.33 77.95 53.33 68.54 72.14 63.77 72.14" style="fill:#fff"/><polygon points="72.64 72.14 81.98 53.47 86.74 53.47 79.43 68.1 88.34 68.1 86.32 72.14 72.64 72.14" style="fill:#fff"/><path d="M95.55,72.45a8.1,8.1,0,0,1-3.83-.66A3.16,3.16,0,0,1,90.17,70a3.94,3.94,0,0,1,0-2.26,26.8,26.8,0,0,1,1.94-4.61L97,53.33h4.77l-5.2,10.38a22,22,0,0,0-1.31,2.89,1.33,1.33,0,0,0,.12,1.26,2.11,2.11,0,0,0,1.63.47,4.64,4.64,0,0,0,2.35-.56,4.36,4.36,0,0,0,1.53-1.37,29.41,29.41,0,0,0,1.63-3l5.06-10.12h4.76l-5,10.09a35.6,35.6,0,0,1-2.6,4.59,10.7,10.7,0,0,1-2.3,2.35,11.17,11.17,0,0,1-3,1.52A11.86,11.86,0,0,1,95.55,72.45Z" style="fill:#fff"/><path d="M37.71,10.26a102.63,102.63,0,0,0-24.06,3.61A100.56,100.56,0,0,1,39.71,7.55Z" style="fill:#fff"/><path d="M64.45,40.5c-10.17,5.2-23.73,5.58-30.87,5.58H31.63a6.77,6.77,0,0,0-6.05,3.72L17.19,66.33a9.68,9.68,0,0,1-8.62,5.29H0L15.62,40.68a9.84,9.84,0,0,1,8.78-5.4h.2L21.68,44l6.44-8.7h5.79c5,0,15.29,0,23.52-3.41C71,26.2,68.71,16.77,59.49,12.69c-3.38-1.5-10-2.48-18-2.5L42.56,7.3c8.8-.62,17.49.1,24.87,2.74C81.5,15.05,84.28,30.38,64.45,40.5Z" style="fill:#fff"/><path d="M35.64,18.88,42.65,0,29.42,18.88,8.87,22,26.08,25.1,19.07,44,32.3,25.1,64.24,22Zm-2.84,3a3.66,3.66,0,0,1-3,2c-1.13,0-1.63-.91-1.1-2a3.71,3.71,0,0,1,3-2.05C32.84,19.8,33.33,20.72,32.8,21.85Z" style="fill:#fff"/></g></g></svg>